<?xml version="1.0" standalone="no"?>
<svg xmlns:xlink="http://www.w3.org/1999/xlink" id="wave" style="transform:rotate(180deg); transition: 0.3s" viewBox="0 0 1440 430" version="1.1" xmlns="http://www.w3.org/2000/svg"><defs><linearGradient id="sw-gradient-0" x1="0" x2="0" y1="1" y2="0"><stop stop-color="rgba(243, 106, 62, 1)" offset="0%"/><stop stop-color="rgba(255, 179, 11, 0.12)" offset="100%"/></linearGradient></defs><path style="transform:translate(0, 0px); opacity:1" fill="url(#sw-gradient-0)" d="M0,172L34.3,157.7C68.6,143,137,115,206,143.3C274.3,172,343,258,411,243.7C480,229,549,115,617,64.5C685.7,14,754,29,823,57.3C891.4,86,960,129,1029,172C1097.1,215,1166,258,1234,286.7C1302.9,315,1371,330,1440,301C1508.6,272,1577,201,1646,143.3C1714.3,86,1783,43,1851,50.2C1920,57,1989,115,2057,121.8C2125.7,129,2194,86,2263,86C2331.4,86,2400,129,2469,150.5C2537.1,172,2606,172,2674,143.3C2742.9,115,2811,57,2880,50.2C2948.6,43,3017,86,3086,86C3154.3,86,3223,43,3291,28.7C3360,14,3429,29,3497,78.8C3565.7,129,3634,215,3703,229.3C3771.4,244,3840,186,3909,200.7C3977.1,215,4046,301,4114,293.8C4182.9,287,4251,186,4320,136.2C4388.6,86,4457,86,4526,93.2C4594.3,100,4663,115,4731,136.2C4800,158,4869,186,4903,200.7L4937.1,215L4937.1,430L4902.9,430C4868.6,430,4800,430,4731,430C4662.9,430,4594,430,4526,430C4457.1,430,4389,430,4320,430C4251.4,430,4183,430,4114,430C4045.7,430,3977,430,3909,430C3840,430,3771,430,3703,430C3634.3,430,3566,430,3497,430C3428.6,430,3360,430,3291,430C3222.9,430,3154,430,3086,430C3017.1,430,2949,430,2880,430C2811.4,430,2743,430,2674,430C2605.7,430,2537,430,2469,430C2400,430,2331,430,2263,430C2194.3,430,2126,430,2057,430C1988.6,430,1920,430,1851,430C1782.9,430,1714,430,1646,430C1577.1,430,1509,430,1440,430C1371.4,430,1303,430,1234,430C1165.7,430,1097,430,1029,430C960,430,891,430,823,430C754.3,430,686,430,617,430C548.6,430,480,430,411,430C342.9,430,274,430,206,430C137.1,430,69,430,34,430L0,430Z"/><defs><linearGradient id="sw-gradient-1" x1="0" x2="0" y1="1" y2="0"><stop stop-color="rgba(218.941, 53.223, 0, 1)" offset="0%"/><stop stop-color="rgba(255, 179, 11, 1)" offset="100%"/></linearGradient></defs><path style="transform:translate(0, 50px); opacity:0.9" fill="url(#sw-gradient-1)" d="M0,86L34.3,78.8C68.6,72,137,57,206,78.8C274.3,100,343,158,411,193.5C480,229,549,244,617,265.2C685.7,287,754,315,823,301C891.4,287,960,229,1029,236.5C1097.1,244,1166,315,1234,301C1302.9,287,1371,186,1440,179.2C1508.6,172,1577,258,1646,250.8C1714.3,244,1783,143,1851,150.5C1920,158,1989,272,2057,293.8C2125.7,315,2194,244,2263,215C2331.4,186,2400,201,2469,179.2C2537.1,158,2606,100,2674,121.8C2742.9,143,2811,244,2880,272.3C2948.6,301,3017,258,3086,207.8C3154.3,158,3223,100,3291,107.5C3360,115,3429,186,3497,236.5C3565.7,287,3634,315,3703,308.2C3771.4,301,3840,258,3909,243.7C3977.1,229,4046,244,4114,243.7C4182.9,244,4251,229,4320,215C4388.6,201,4457,186,4526,172C4594.3,158,4663,143,4731,157.7C4800,172,4869,215,4903,236.5L4937.1,258L4937.1,430L4902.9,430C4868.6,430,4800,430,4731,430C4662.9,430,4594,430,4526,430C4457.1,430,4389,430,4320,430C4251.4,430,4183,430,4114,430C4045.7,430,3977,430,3909,430C3840,430,3771,430,3703,430C3634.3,430,3566,430,3497,430C3428.6,430,3360,430,3291,430C3222.9,430,3154,430,3086,430C3017.1,430,2949,430,2880,430C2811.4,430,2743,430,2674,430C2605.7,430,2537,430,2469,430C2400,430,2331,430,2263,430C2194.3,430,2126,430,2057,430C1988.6,430,1920,430,1851,430C1782.9,430,1714,430,1646,430C1577.1,430,1509,430,1440,430C1371.4,430,1303,430,1234,430C1165.7,430,1097,430,1029,430C960,430,891,430,823,430C754.3,430,686,430,617,430C548.6,430,480,430,411,430C342.9,430,274,430,206,430C137.1,430,69,430,34,430L0,430Z"/><defs><linearGradient id="sw-gradient-2" x1="0" x2="0" y1="1" y2="0"><stop stop-color="rgba(243, 106, 62, 1)" offset="0%"/><stop stop-color="rgba(255, 179, 11, 0.3)" offset="100%"/></linearGradient></defs><path style="transform:translate(0, 100px); opacity:0.8" fill="url(#sw-gradient-2)" d="M0,215L34.3,200.7C68.6,186,137,158,206,136.2C274.3,115,343,100,411,143.3C480,186,549,287,617,315.3C685.7,344,754,301,823,293.8C891.4,287,960,315,1029,286.7C1097.1,258,1166,172,1234,157.7C1302.9,143,1371,201,1440,222.2C1508.6,244,1577,229,1646,243.7C1714.3,258,1783,301,1851,286.7C1920,272,1989,201,2057,143.3C2125.7,86,2194,43,2263,64.5C2331.4,86,2400,172,2469,236.5C2537.1,301,2606,344,2674,322.5C2742.9,301,2811,215,2880,200.7C2948.6,186,3017,244,3086,222.2C3154.3,201,3223,100,3291,86C3360,72,3429,143,3497,150.5C3565.7,158,3634,100,3703,86C3771.4,72,3840,100,3909,121.8C3977.1,143,4046,158,4114,200.7C4182.9,244,4251,315,4320,308.2C4388.6,301,4457,215,4526,157.7C4594.3,100,4663,72,4731,86C4800,100,4869,158,4903,186.3L4937.1,215L4937.1,430L4902.9,430C4868.6,430,4800,430,4731,430C4662.9,430,4594,430,4526,430C4457.1,430,4389,430,4320,430C4251.4,430,4183,430,4114,430C4045.7,430,3977,430,3909,430C3840,430,3771,430,3703,430C3634.3,430,3566,430,3497,430C3428.6,430,3360,430,3291,430C3222.9,430,3154,430,3086,430C3017.1,430,2949,430,2880,430C2811.4,430,2743,430,2674,430C2605.7,430,2537,430,2469,430C2400,430,2331,430,2263,430C2194.3,430,2126,430,2057,430C1988.6,430,1920,430,1851,430C1782.9,430,1714,430,1646,430C1577.1,430,1509,430,1440,430C1371.4,430,1303,430,1234,430C1165.7,430,1097,430,1029,430C960,430,891,430,823,430C754.3,430,686,430,617,430C548.6,430,480,430,411,430C342.9,430,274,430,206,430C137.1,430,69,430,34,430L0,430Z"/></svg>